<?xml version="1.0" standalone="no"?><!DOCTYPE svg PUBLIC "-//W3C//DTD SVG 1.1//EN" "http://www.w3.org/Graphics/SVG/1.1/DTD/svg11.dtd"><svg t="1555496758554" class="icon" style="" viewBox="0 0 1024 1024" version="1.1" xmlns="http://www.w3.org/2000/svg" p-id="9634" xmlns:xlink="http://www.w3.org/1999/xlink" width="200" height="200"><defs><style type="text/css"></style></defs><path d="M942.933 231.253c-0.853-29.866-25.6-58.026-54.613-63.146 0 0-113.493-17.92-177.493-40.96-79.36-28.16-158.72-90.454-158.72-90.454-24.747-17.92-62.294-16.213-85.334 2.56 0 0-55.466 56.32-159.573 88.747-96.427 38.4-173.227 42.667-173.227 42.667-29.013 3.413-53.76 30.72-54.613 60.586 0 0-4.267 153.6 0.853 288.427C81.92 761.173 367.787 1000.107 512 1000.107c142.507 0 387.413-166.4 426.667-476.16 11.093-185.174 4.266-292.694 4.266-292.694zM721.067 442.88L475.307 691.2c-10.24 10.24-28.16 11.947-40.107 2.56l-128-101.547c-23.893-18.773-26.453-51.2-5.12-73.386 20.48-21.334 56.32-24.747 80.213-5.974l59.734 46.934 204.8-192.854c21.333-20.48 55.466-19.626 75.946 0 0 0 0-0.853-0.853-0.853l1.707 1.707s-0.854 0-0.854-0.854c19.627 21.334 19.627 54.614-1.706 75.947z" p-id="9635" fill="#000000"></path></svg>